<svg xmlns="http://www.w3.org/2000/svg" width="1200" height="630" viewBox="0 0 1200 630">
  <defs>
    <linearGradient id="bg" x1="0" y1="0" x2="1200" y2="630" gradientUnits="userSpaceOnUse">
      <stop offset="0%" stop-color="#15281f" />
      <stop offset="100%" stop-color="#1c3327" />
    </linearGradient>
    <radialGradient id="glowBrass" cx="0.85" cy="0.15" r="0.6">
      <stop offset="0%" stop-color="#ad7a1f" stop-opacity="0.5" />
      <stop offset="100%" stop-color="#ad7a1f" stop-opacity="0" />
    </radialGradient>
    <radialGradient id="glowWine" cx="0.08" cy="0.9" r="0.6">
      <stop offset="0%" stop-color="#7a2e3b" stop-opacity="0.55" />
      <stop offset="100%" stop-color="#7a2e3b" stop-opacity="0" />
    </radialGradient>
  </defs>

  <rect width="1200" height="630" fill="url(#bg)" />
  <rect width="1200" height="630" fill="url(#glowBrass)" />
  <rect width="1200" height="630" fill="url(#glowWine)" />

  <g transform="translate(90 175)">
    <circle cx="60" cy="60" r="56" fill="none" stroke="#ad7a1f" stroke-width="2" stroke-dasharray="5 5" opacity="0.8" />
    <circle cx="60" cy="60" r="44" fill="#f6f1e4" opacity="0.06" />
    <g fill="#f6f1e4">
      <ellipse cx="60" cy="71" rx="20.5" ry="16.3" />
      <ellipse cx="34.5" cy="43" rx="9" ry="11.4" transform="rotate(-18 34.5 43)" />
      <ellipse cx="55" cy="29" rx="9.7" ry="12" transform="rotate(-4 55 29)" />
      <ellipse cx="75" cy="31.2" rx="9.7" ry="12" transform="rotate(10 75 31.2)" />
      <ellipse cx="91" cy="49" rx="9" ry="11.4" transform="rotate(24 91 49)" />
    </g>
  </g>

  <text x="90" y="420" font-family="Georgia, 'Times New Roman', serif" font-size="100" font-weight="600" fill="#f6f1e4">Groom Service</text>
  <text x="94" y="472" font-family="Georgia, 'Times New Roman', serif" font-size="38" font-style="italic" fill="#d9b65c">Check in scruffy, check out fabulous.</text>
  <text x="94" y="540" font-family="'Courier New', monospace" font-size="24" letter-spacing="4" fill="#f6f1e4" opacity="0.7">FEAR FREE CERTIFIED &#183; WEST HOLLYWOOD, CA</text>
</svg>
